<svg width="14" height="14" viewBox="0 0 14 14" fill="none" xmlns="http://www.w3.org/2000/svg">
<g id="vuesax/outline/star">
<g id="star">
<path id="Vector" d="M10.3021 13.2243C9.99289 13.2243 9.59623 13.1251 9.10039 12.8335L7.35623 11.801C7.17539 11.696 6.82539 11.696 6.65039 11.801L4.90039 12.8335C3.86789 13.446 3.26123 13.201 2.98706 13.0026C2.71873 12.8043 2.29873 12.2968 2.57289 11.1301L2.98706 9.33931C3.03373 9.15264 2.94039 8.83181 2.80039 8.69181L1.35373 7.24514C0.630394 6.52181 0.688728 5.90348 0.787894 5.60014C0.887061 5.29681 1.20206 4.76014 2.20539 4.59097L4.06623 4.28181C4.24123 4.25264 4.49206 4.06597 4.56789 3.90847L5.60039 1.84931C6.06706 0.910142 6.67956 0.770142 7.00039 0.770142C7.32123 0.770142 7.93373 0.910142 8.40039 1.84931L9.42706 3.90264C9.50873 4.06014 9.75956 4.24681 9.93456 4.27597L11.7954 4.58514C12.8046 4.75431 13.1196 5.29098 13.2129 5.59431C13.3062 5.89764 13.3646 6.51597 12.6471 7.23931L11.2004 8.69181C11.0604 8.83181 10.9729 9.14681 11.0137 9.33931L11.4279 11.1301C11.6962 12.2968 11.2821 12.8043 11.0137 13.0026C10.8679 13.1076 10.6346 13.2243 10.3021 13.2243ZM7.00039 10.8443C7.28623 10.8443 7.57206 10.9143 7.79956 11.0485L9.54373 12.081C10.0512 12.3843 10.3721 12.3843 10.4946 12.2968C10.6171 12.2093 10.7046 11.9001 10.5762 11.3285L10.1621 9.53764C10.0512 9.05348 10.2321 8.42931 10.5821 8.07347L12.0287 6.62681C12.3146 6.34097 12.4429 6.06098 12.3846 5.86847C12.3204 5.67598 12.0521 5.51848 11.6554 5.45431L9.79456 5.14514C9.3454 5.06931 8.85539 4.70764 8.65123 4.29931L7.62456 2.24597C7.43789 1.87264 7.20456 1.65097 7.00039 1.65097C6.79623 1.65097 6.56289 1.87264 6.38206 2.24597L5.34956 4.29931C5.14539 4.70764 4.65539 5.06931 4.20623 5.14514L2.35123 5.45431C1.95456 5.51848 1.68623 5.67598 1.62206 5.86847C1.55789 6.06098 1.69206 6.34681 1.97789 6.62681L3.42456 8.07347C3.77456 8.42347 3.95539 9.05348 3.84456 9.53764L3.43039 11.3285C3.29623 11.906 3.38956 12.2093 3.51206 12.2968C3.63456 12.3843 3.94956 12.3785 4.46289 12.081L6.20706 11.0485C6.42873 10.9143 6.71456 10.8443 7.00039 10.8443Z" fill="#555555"/>
</g>
</g>
</svg>
